HIERARCHY
ROOT Hips
{
	OFFSET -3.958830 18.904000 13.208200
	CHANNELS 6 Xposition Yposition Zposition Zrotation Yrotation Xrotation 
	JOINT LHipJoint
	{
		OFFSET 0.000000 0.000000 0.000000
		CHANNELS 3 Zrotation Yrotation Xrotation
		JOINT LeftUpLeg
		{
			OFFSET 1.800000 -1.400000 0.085000
			CHANNELS 3 Zrotation Yrotation Xrotation
			JOINT LeftLeg
			{
				OFFSET 2.215000 -6.000000 0.000000
				CHANNELS 3 Zrotation Yrotation Xrotation
				JOINT LeftFoot
				{
					OFFSET 2.500000 -6.900000 0.000000
					CHANNELS 3 Zrotation Yrotation Xrotation
					JOINT LeftToeBase
					{
						OFFSET 0.200000 -0.500000 1.950000
						CHANNELS 3 Zrotation Yrotation Xrotation
						End Site
						{
							OFFSET 0.000000 0.000000 0.000000
						}
					}
				}
			}
		}
	}
	JOINT RHipJoint
	{
		OFFSET 0.000000 0.000000 0.000000
		CHANNELS 3 Zrotation Yrotation Xrotation
		JOINT RightUpLeg
		{
			OFFSET -1.800000 -1.400000 0.085000
			CHANNELS 3 Zrotation Yrotation Xrotation
			JOINT RightLeg
			{
				OFFSET -2.215000 -6.000000 0.000000
				CHANNELS 3 Zrotation Yrotation Xrotation
				JOINT RightFoot
				{
					OFFSET -2.500000 -6.900000 0.000000
					CHANNELS 3 Zrotation Yrotation Xrotation
					JOINT RightToeBase
					{
						OFFSET -0.200000 -0.500000 1.950000
						CHANNELS 3 Zrotation Yrotation Xrotation
						End Site
						{
							OFFSET 0.000000 0.000000 0.000000
						}
					}
				}
			}
		}
	}
	JOINT LowerBack
	{
		OFFSET 0.000000 0.000000 0.000000
		CHANNELS 3 Zrotation Yrotation Xrotation
		JOINT Spine
		{
			OFFSET -0.087000 1.940000 -0.288900
			CHANNELS 3 Zrotation Yrotation Xrotation
			JOINT Spine1
			{
				OFFSET 0.000000 1.950000 0.060000
				CHANNELS 3 Zrotation Yrotation Xrotation
				JOINT Neck
				{
					OFFSET 0.000000 0.000000 0.000000
					CHANNELS 3 Zrotation Yrotation Xrotation
					JOINT Neck1
					{
						OFFSET 0.000000 1.600000 0.340000
						CHANNELS 3 Zrotation Yrotation Xrotation
						JOINT Head
						{
							OFFSET 0.000000 1.667000 -0.240000
							CHANNELS 3 Zrotation Yrotation Xrotation
							End Site
							{
								OFFSET 0.000000 0.000000 0.000000
							}
						}
					}
				}
				JOINT LeftShoulder
				{
					OFFSET 0.000000 0.000000 0.000000
					CHANNELS 3 Zrotation Yrotation Xrotation
					JOINT LeftArm
					{
						OFFSET 2.700000 1.550000 -0.730000
						CHANNELS 3 Zrotation Yrotation Xrotation
						JOINT LeftForeArm
						{
							OFFSET 5.450000 0.000000 0.000000
							CHANNELS 3 Zrotation Yrotation Xrotation
							JOINT LeftHand
							{
								OFFSET 3.450000 0.000000 0.000000
								CHANNELS 3 Zrotation Yrotation Xrotation
								JOINT LeftHandIndex1
								{
									OFFSET 0.750000 0.000000 0.000000
									CHANNELS 3 Zrotation Yrotation Xrotation
									End Site
									{
										OFFSET 0.000000 0.000000 0.000000
									}
								}
							}
						}
					}
				}
				JOINT RightShoulder
				{
					OFFSET 0.000000 0.000000 0.000000
					CHANNELS 3 Zrotation Yrotation Xrotation
					JOINT RightArm
					{
						OFFSET -2.700000 1.550000 -0.730000
						CHANNELS 3 Zrotation Yrotation Xrotation
						JOINT RightForeArm
						{
							OFFSET -5.450000 0.000000 0.000000
							CHANNELS 3 Zrotation Yrotation Xrotation
							JOINT RightHand
							{
								OFFSET -3.450000 0.000000 0.000000
								CHANNELS 3 Zrotation Yrotation Xrotation
								JOINT RightHandIndex1
								{
									OFFSET -0.750000 0.000000 0.000000
									CHANNELS 3 Zrotation Yrotation Xrotation
									End Site
									{
										OFFSET 0.000000 0.000000 0.000000
									}
								}
							}
						}
					}
				}
			}
		}
	}
}
MOTION
Frames: 9
Frame Time: 0.016667
-0.700950 17.645800 0.186430 -154.999011 -50.001480 152.454596 -15.500939 11.640600 1.160131 14.716477 -0.211947 -3.348005 -7.131909 7.064356 13.928141 -0.430172 5.142793 2.855298 0.637770 0.377920 0.459770 18.446030 -8.181183 5.771471 -25.259060 8.151084 -43.597530 81.729008 -36.943060 27.226174 -2.657945 -11.296189 0.630312 0.258530 0.147010 0.257680 -5.956436 -0.021586 -9.030396 36.694492 -9.088561 18.971738 -16.966071 -2.508383 13.934584 5.920576 -5.225335 -11.693156 -10.521099 1.194324 32.298417 1.206900 -2.761770 -21.405100 -8.699450 -27.622887 8.555843 -15.669890 -25.128894 -0.749651 119.256457 -79.140890 -121.224510 -3.783757 2.860943 0.592020 -0.043290 0.103210 0.179380 -3.087044 29.631634 3.857381 16.906287 21.889691 -16.196064 125.718203 85.261750 120.370975 1.363703 0.801802 -0.114960 0.288180 -0.040060 -0.159070 
-0.809830 17.609330 0.202100 -160.056114 -40.020452 159.212954 -15.172015 11.662277 1.040206 13.046286 -0.180853 -3.751990 -4.774602 6.575163 15.962220 -0.388325 4.826445 2.991032 0.658490 0.445580 0.362380 18.735052 -8.502603 5.921451 -25.640554 8.005366 -41.740878 79.180218 -30.282952 23.317249 -2.420606 -10.558859 0.844472 0.280190 0.191220 0.243650 -5.747283 -0.115616 -8.818943 35.516800 -8.012391 18.427470 -15.926884 -1.699942 15.608975 5.251371 -4.415974 -12.362923 -9.537297 -3.079117 32.085742 3.770880 -7.482610 -19.473030 -8.227749 -28.437515 4.894952 -17.214033 -28.475275 -4.180108 82.283925 -86.648157 -79.603414 -3.474038 -0.635316 0.492370 -0.030250 0.064680 0.259120 -2.322367 29.761556 9.038002 13.561241 23.943094 -4.936815 -103.218029 75.381339 -97.359817 2.370009 3.031567 -0.059760 0.274230 -0.084800 -0.066490 
-0.974920 17.603830 0.203490 -162.916539 -27.888052 161.592291 -14.884473 11.715761 0.996882 12.351835 0.203310 -1.015794 -2.429512 6.207515 17.467328 -0.343734 4.747217 2.987603 0.768580 0.567960 0.474010 18.946087 -8.810531 6.066080 -28.005890 7.198904 -35.423581 80.404491 -23.534072 17.131205 -2.306985 -9.616416 1.053992 0.307940 0.045200 0.232550 -5.670024 0.123719 -8.773000 35.377348 -7.292619 20.016346 -15.682485 -1.434902 16.895051 6.077222 -3.752141 -12.125106 -9.086643 -3.082739 36.969048 5.654340 -7.609300 -23.710350 -10.733714 -33.510970 6.813198 -15.357854 -26.411071 -7.490119 46.056296 -88.970284 -47.444923 -3.148558 2.325290 0.590300 -0.164750 0.194810 0.254380 -1.268815 34.656904 6.286810 13.160050 19.359772 -18.459424 132.344436 87.246365 128.180141 1.402676 -0.030138 -0.004590 0.259630 -0.159770 -0.084000 
-1.089140 17.507780 0.200260 -164.992200 -16.286601 165.854433 -14.717611 11.809895 0.951215 10.456678 0.095552 -2.655556 0.528811 5.447333 19.931012 -0.415127 4.616916 3.016681 0.646600 0.440370 0.346730 19.067062 -9.037833 6.268403 -28.395384 7.584021 -36.087805 74.708688 -20.136684 16.203134 -2.046604 -9.248879 1.129177 0.264090 0.177450 0.281020 -5.605599 0.319678 -8.625460 33.159329 -5.811569 19.332991 -14.227523 -0.572485 18.330976 5.758914 -2.674878 -12.851973 -6.582275 -3.486285 36.019615 5.775760 -7.941130 -19.538950 -12.026598 -35.286064 7.216459 -13.438689 -24.794518 -8.591271 43.698600 -85.550540 -42.163601 -3.300771 2.466734 0.488640 -0.040450 0.083560 0.214260 0.758270 36.339222 7.265020 12.606418 20.151117 -18.352766 -38.004422 88.694967 -39.700302 1.374833 -0.740241 -0.017340 0.239450 -0.038870 -0.056800 
-1.191410 17.399080 0.181080 -165.601408 -7.484430 167.809722 -14.690132 12.184824 1.026352 9.570239 -0.057974 -3.785306 4.283080 4.391872 21.990798 -0.483015 4.490377 3.030054 0.592550 0.371330 0.375520 18.968193 -9.281722 6.235002 -27.957524 7.104568 -32.331577 66.775499 -15.524065 13.260544 -1.778320 -8.422007 1.318573 0.225530 0.126970 0.256700 -5.350952 0.055850 -8.574990 30.584959 -5.140960 20.615363 -11.950869 -0.446031 19.155821 5.781017 -0.456372 -14.100321 -2.770920 -5.818090 37.669976 4.995270 -8.260450 -20.831370 -12.732654 -37.626430 7.750003 -10.125386 -22.846131 -9.762593 35.294519 -82.984432 -33.042097 -3.298038 2.701309 0.552700 -0.072970 0.111340 0.147920 1.441587 38.027502 8.458287 12.210842 20.389006 -19.212860 -28.220886 82.894709 -28.024479 1.410021 -1.143040 -0.054070 0.249750 -0.004360 -0.107220 
-1.306690 17.261590 0.144170 -167.080029 3.700055 170.393045 -14.699740 12.485557 1.201922 7.686912 0.101466 -4.117468 7.062666 3.584292 22.795004 -0.449761 4.362725 3.116304 0.584030 0.341920 0.400100 18.862525 -9.404906 6.288782 -29.053543 7.715947 -32.019027 56.965383 -11.423050 11.462848 -1.486276 -7.547320 1.590828 0.182610 0.117800 0.217620 -5.117443 -0.184618 -8.627927 27.128330 -3.929983 21.836896 -10.771109 0.539305 18.968305 5.640468 0.871296 -15.667278 -0.654417 -7.342124 40.418951 5.683530 -9.260870 -20.871190 -14.521301 -39.388829 8.586760 -8.395787 -20.955563 -10.553840 29.722900 -77.535608 -25.175611 -3.251054 2.808837 0.602550 -0.109220 0.138320 0.170690 3.316065 40.288773 8.999719 10.436989 22.612631 -18.715901 -18.494614 71.193445 -15.303399 1.496425 -1.457082 -0.073100 0.290520 -0.040430 -0.113510 
-1.408100 17.076460 0.154180 -168.081325 16.178974 172.979023 -14.850353 12.965354 1.478917 5.590911 0.006446 -6.707766 10.432082 2.701714 25.471166 -0.255129 4.267595 3.148903 0.594930 0.400020 0.469600 18.587266 -9.468013 6.301785 -28.615594 8.467515 -34.937898 46.698460 -8.480143 10.777306 -1.170280 -6.430354 1.979264 0.126990 0.006250 0.185480 -4.469447 -0.747592 -8.802803 22.521717 -1.408624 25.258874 -8.763449 3.607204 16.077693 5.940849 3.131659 -17.978390 3.484973 -10.038988 41.634402 2.437520 -8.896790 -20.140680 -18.957060 -39.472293 9.698816 -13.138595 -20.950568 -10.891858 41.068507 -71.088718 -29.634581 -3.179377 2.542236 0.575440 -0.158170 0.234620 0.200800 6.537196 41.671213 10.490497 12.141331 25.470241 -18.294603 -27.697660 61.022335 -16.495440 1.682572 -1.299388 0.000810 0.244640 -0.167420 -0.095300 
-1.509360 16.873490 0.114500 -168.937576 23.828907 173.863382 -14.892853 13.249240 1.808999 2.841424 -0.370645 -8.409199 14.250085 1.466008 28.495595 -0.198484 4.578220 3.030465 0.600880 0.403970 0.474360 18.433554 -9.960338 5.677710 -26.489799 6.760812 -34.114499 32.701088 -6.262399 9.342590 -0.702113 -4.951939 2.456477 0.139220 0.030070 0.180730 -4.144650 -0.712903 -8.546909 19.390120 -0.310785 26.097747 -6.683734 4.020235 15.725684 5.499580 3.717405 -17.441157 4.957720 -11.542200 39.480629 3.468900 -9.875480 -21.167520 -18.381827 -37.625531 9.472688 -15.486169 -19.943997 -11.439999 48.627472 -68.251061 -33.701863 -3.178241 2.363022 0.568050 -0.148220 0.220610 0.203470 6.974924 40.004563 10.387390 12.921848 25.357452 -17.710592 -25.041480 57.568963 -14.212656 1.688715 -1.359618 -0.008760 0.270280 -0.165190 -0.092210 
-1.580500 16.632610 0.088170 -169.799032 27.467728 175.558360 -15.016965 13.385940 2.262298 0.121664 -2.034830 -11.990819 16.840976 0.135869 32.481271 -0.225416 5.122587 2.795519 0.543090 0.336330 0.444390 18.258616 -10.318249 4.807938 -24.844074 2.939551 -32.447573 17.602111 -4.066904 4.606759 -0.311181 -3.398588 2.973516 0.156530 0.065320 0.193370 -3.610658 -0.915362 -8.339549 14.427818 -0.006984 25.512039 -3.769253 2.966235 14.539456 4.935834 6.065932 -17.228544 9.792137 -14.446060 34.752611 1.339900 -10.586730 -20.661200 -16.341959 -35.964480 8.767543 -15.244493 -18.055154 -11.363313 40.996740 -64.755225 -26.857226 -3.232500 2.538615 0.568810 -0.086250 0.168900 0.154840 5.920825 36.570504 10.755691 15.405243 22.915476 -16.647735 -28.887521 52.690533 -15.048101 1.666809 -1.351818 -0.070920 0.281160 -0.087790 -0.131790 
